<svg width="67" height="100" viewBox="0 0 67 100" fill="none" xmlns="http://www.w3.org/2000/svg">
<path fill-rule="evenodd" clip-rule="evenodd" d="M30.6534 0.045411C22.3772 0.861817 15.4345 4.096 9.7456 9.78486C1.83349 17.6972 -1.56201 29.0024 0.675683 39.9833C1.16338 42.3763 2.02959 45.0148 3.04033 47.1856C3.4626 48.0929 10.0681 60.1673 17.719 74.0179C32.2833 100.384 32.0105 99.9296 33.2901 99.9296C34.5696 99.9296 34.297 100.383 48.8675 74.0042C56.522 60.1462 63.1274 48.0718 63.5464 47.1722C67.179 39.3694 67.5556 29.9259 64.5556 21.8614C62.8077 17.1624 60.3179 13.2681 56.8347 9.78486C51.7714 4.72178 45.8862 1.68272 38.6612 0.400489C37.0923 0.122169 32.1136 -0.0987296 30.6534 0.045411ZM34.9503 16.7313C39.1411 17.198 42.5384 18.8935 45.4356 21.9648C48.5987 25.3179 50.0505 29.2915 49.8327 34.0001C49.7034 36.7927 49.3831 38.0849 48.2226 40.4915C46.1622 44.7649 42.5079 47.8661 37.88 49.2689C36.3134 49.7437 35.8142 49.8017 33.2901 49.8017C30.7661 49.8017 30.2669 49.7437 28.7003 49.2689C25.3538 48.2546 22.4991 46.3499 20.3749 43.7142C19.114 42.1497 17.6763 39.3698 17.1753 37.5286C16.6847 35.7249 16.5726 31.969 16.9534 30.0903C18.3896 23.0019 24.2558 17.5618 31.337 16.7509C32.1427 16.6587 32.8897 16.5726 32.9972 16.5595C33.1046 16.5464 33.9835 16.6237 34.9503 16.7313Z" fill="#5DB4CE"/>
</svg>
