<svg width="81" height="100" viewBox="0 0 81 100" fill="none" xmlns="http://www.w3.org/2000/svg">
<path fill-rule="evenodd" clip-rule="evenodd" d="M33.4795 0.230201C32.7594 0.555006 32.1088 1.24329 31.8324 1.97297C31.7068 2.30422 31.624 4.30129 31.624 6.99544V11.4683L18.9775 11.5238L6.33104 11.5794L5.35447 12.0626C4.00447 12.7308 2.82615 14.0017 2.33201 15.3222C1.93377 16.3865 1.924 16.6784 1.9783 25.8146L2.03416 35.2122L2.61385 36.2589C3.33592 37.5626 4.42459 38.5099 5.78572 39.0193C6.7949 39.3968 7.29568 39.4115 19.2291 39.4115H31.624V42.3411V45.2708H22.3404C14.991 45.2708 12.9254 45.3257 12.426 45.5343C11.7449 45.8189 1.02928 56.7415 0.369317 57.8238C-0.118378 58.6238 -0.123652 59.8388 0.357012 60.6273C1.01131 61.7003 11.7513 72.6552 12.425 72.9366C12.9256 73.1456 14.9838 73.2005 22.3404 73.2005H31.624V83.6314V94.0624L29.6846 94.1294C28.0982 94.1843 27.6472 94.2699 27.2064 94.5993C26.2402 95.3216 25.8623 96.0044 25.8623 97.0286C25.8623 98.0533 26.2404 98.7363 27.207 99.4579C27.7388 99.855 27.9244 99.8607 40.4131 99.8607C52.9017 99.8607 53.0873 99.855 53.6191 99.4579C54.5857 98.7363 54.9638 98.0533 54.9638 97.0286C54.9638 96.0044 54.5859 95.3216 53.6197 94.5993C53.1789 94.2699 52.7279 94.1843 51.1416 94.1294L49.2021 94.0624V83.6368V73.2115L61.8486 73.1572L74.4951 73.1029L75.6131 72.5538C76.9551 71.8949 77.9656 70.7728 78.4974 69.3513C78.8695 68.357 78.8896 67.8368 78.8896 59.2357C78.8896 50.6345 78.8695 50.1144 78.4974 49.12C77.9656 47.6986 76.9551 46.5765 75.6131 45.9175L74.4951 45.3685L61.8486 45.3142L49.2021 45.2599V42.3357V39.4115H58.5869C66.3699 39.4115 68.0642 39.3634 68.515 39.1304C69.2402 38.7554 80.1099 27.5667 80.5207 26.7724C80.9455 25.9511 80.9281 24.8062 80.4799 24.0794C79.7683 22.9259 68.9576 11.9206 68.3164 11.6972C67.8998 11.5519 64.6892 11.4818 58.4599 11.4818H49.2215L49.1631 6.71047C49.0986 1.46321 49.0974 1.45774 47.7601 0.458717C47.2435 0.0729747 46.9449 0.0540294 40.6431 0.0108653C35.4553 -0.0246815 33.9416 0.0216075 33.4795 0.230201ZM43.3428 8.64973V11.4818H40.4131H37.4834V8.64973V5.8177H40.4131H43.3428V8.64973ZM68.9935 20.4173C70.634 22.1091 72.3969 23.9503 72.9109 24.5085L73.8457 25.5236L69.9711 29.5351L66.0967 33.5466L36.9463 33.5493L7.79588 33.5521V25.4466V17.3411H36.9035H66.0109L68.9935 20.4173ZM43.3428 42.3411V45.2708H40.4131H37.4834V42.3411V39.4115H40.4131H43.3428V42.3411ZM73.0303 59.2357V67.3411H43.9107H14.7912L11.5211 63.972C9.72244 62.1189 7.97127 60.282 7.62967 59.89L7.00838 59.1771L10.8689 55.1566L14.7295 51.1361L43.8799 51.1331L73.0303 51.1302V59.2357ZM43.3428 83.6497V94.099H40.4131H37.4834V83.6497V73.2005H40.4131H43.3428V83.6497Z" fill="#5DB4CE"/>
</svg>
