<svg width="101" height="75" viewBox="0 0 101 75" fill="none" xmlns="http://www.w3.org/2000/svg">
<path fill-rule="evenodd" clip-rule="evenodd" d="M22.9523 0.113859C17.5002 0.867765 12.6246 4.89198 10.8533 10.1C9.18062 15.0178 10.1029 20.2453 13.3591 24.306L14.433 25.6451L13.3214 26.241C6.01793 30.157 1.28746 37.0475 0.202695 45.3496C-0.0826566 47.534 -0.0605863 58.474 0.230234 59.0203C0.716172 59.9324 0.61207 59.9224 9.71988 59.9289L18.3625 59.9351L18.3687 66.9176C18.3752 74.2643 18.3755 74.2666 19.2773 74.7471C19.8918 75.0742 80.1144 75.0742 80.7289 74.7471C81.6306 74.2666 81.631 74.2643 81.6375 66.9176L81.6437 59.9351L90.2863 59.9289C99.3941 59.9224 99.29 59.9324 99.7759 59.0203C100.068 58.4725 100.088 47.6162 99.8019 45.3324C98.7957 37.307 93.9718 30.1955 86.9498 26.3853L85.5769 25.6404L86.6488 24.3037C91.3095 18.4916 91.0349 10.2879 85.9972 4.84667C81.9267 0.449993 75.8402 -1.09239 70.1703 0.836126C67.5714 1.71992 66.4093 2.583 66.4093 3.6289C66.4093 4.2164 67.4002 5.24765 67.9646 5.24765C68.192 5.24765 68.722 5.07206 69.1425 4.85761C72.9255 2.92773 76.6599 2.83163 80.1859 4.57382C86.0427 7.46777 88.314 14.6385 85.2318 20.5043C83.9519 22.9396 81.4509 25.0555 78.7511 25.9867C77.6656 26.3613 77.048 26.4369 75.1007 26.4336C73.8117 26.4312 72.3029 26.3543 71.748 26.2625C70.8125 26.1078 70.7023 26.1324 70.2343 26.6002C69.8814 26.9531 69.7297 27.3131 69.7297 27.7975C69.7297 29.0476 70.7031 29.5625 73.5886 29.8381C76.2492 30.0922 78.2634 29.7307 81.6763 28.3861L82.588 28.0269L83.8468 28.5619C86.955 29.883 90.572 32.8363 92.6351 35.7379C93.7181 37.2611 94.9254 39.6213 95.4998 41.3389C96.424 44.1017 96.5254 44.9625 96.6255 50.9019L96.7218 56.6148H89.0851C84.8849 56.6148 81.4484 56.5385 81.4484 56.4451C81.4484 56.0029 80.8105 52.6867 80.542 51.732C78.9234 45.9812 76.1156 41.2863 71.8203 37.1494C69.7625 35.1674 66.3998 32.7514 64.2349 31.6998L63.1347 31.1652L64.3734 29.5986C69.2853 23.3867 69.6101 14.6504 65.1734 8.07968C63.016 4.88476 59.6816 2.30136 56.1009 1.05038C46.313 -2.36934 35.6576 2.95214 32.55 12.8119C30.7462 18.5344 31.9156 24.8978 35.6351 29.6017L36.8763 31.1713L36.1642 31.5072C35.7726 31.692 34.7052 32.2896 33.7921 32.8352C28.3004 36.117 24.1431 40.706 21.3851 46.5314C20.1218 49.1996 19.4634 51.2594 18.905 54.2902L18.4767 56.6148H10.9H3.3234L3.32457 51.7808C3.32633 44.6867 3.77477 42.3355 5.91363 38.2107C8.17926 33.841 12.3636 30.0152 16.6443 28.3998L17.5629 28.0531L19.281 28.742C21.4646 29.6172 22.8045 29.885 25.0031 29.885C27.6964 29.885 29.865 29.3351 30.1552 28.5787C30.4214 27.885 30.2687 27.0971 29.7718 26.6002C29.3039 26.1324 29.1937 26.1078 28.2582 26.2625C27.7033 26.3543 26.1945 26.4312 24.9054 26.4336C22.0613 26.4385 20.6588 26.0291 18.4435 24.5475C15.1826 22.3664 13.4107 18.9328 13.4226 14.818C13.4353 10.4506 15.8937 6.51406 19.8203 4.57382C23.3462 2.83163 27.0806 2.92773 30.8636 4.85761C31.9011 5.38691 32.3537 5.34902 33.0259 4.67675C34.4 3.30253 33.2263 1.93456 29.6906 0.789055C27.5103 0.0826093 24.9978 -0.169149 22.9523 0.113859ZM52.3275 3.50038C55.4935 4.01406 58.2968 5.48554 60.6476 7.86777C62.505 9.74999 63.6334 11.6476 64.3736 14.1344C65.0853 16.5262 65.1347 19.8305 64.4925 22.1014C63.2646 26.4445 60.4982 29.7934 56.5461 31.7209C54.2658 32.833 52.5748 33.2205 50.0031 33.2205C47.4314 33.2205 45.7404 32.833 43.4601 31.7209C39.508 29.7934 36.7416 26.4445 35.5136 22.1014C34.8714 19.8305 34.9209 16.5262 35.6326 14.1344C36.3728 11.6476 37.5011 9.74999 39.3586 7.86777C42.865 4.31445 47.573 2.7289 52.3275 3.50038ZM41.6603 34.5523C44.4283 36.0094 46.6726 36.5457 50.0031 36.5457C53.3295 36.5457 55.5787 36.009 58.3359 34.5574L60.1959 33.5783L61.3005 34.0435C64.447 35.3682 67.2138 37.2875 70.0355 40.1029C73.6513 43.7105 76.159 48.0707 77.3656 52.8486C78.2033 56.1652 78.3234 57.6834 78.3234 64.9594V71.6539H50.0031H21.6828V64.9467C21.6828 61.2418 21.7781 57.5043 21.8957 56.5971C22.7613 49.9178 25.6304 44.1887 30.3974 39.6207C32.6486 37.4637 34.3146 36.2947 37.2804 34.7916C38.6082 34.1185 39.7162 33.568 39.7427 33.568C39.7691 33.568 40.632 34.0109 41.6603 34.5523Z" fill="#5DB4CE"/>
</svg>
