<svg width="145" height="85" viewBox="0 0 145 85" fill="none" xmlns="http://www.w3.org/2000/svg">
<path fill-rule="evenodd" clip-rule="evenodd" d="M41.7823 38.1592C41.7823 33.917 44.9837 30.4423 49.5722 30.4423C52.3885 30.4423 53.9679 31.5082 55.355 32.8729L53.3915 35.1318C52.2393 34.0877 51.2571 33.4695 49.5503 33.4695C47.0319 33.4695 45.2186 35.5589 45.2186 38.1592C45.2186 40.7169 46.9897 42.849 49.5503 42.849C51.2571 42.849 52.3037 42.1664 53.4773 41.1006L55.5681 43.3387C54.0322 44.9806 52.3242 45.876 49.4438 45.876C45.048 45.876 41.7823 42.4858 41.7823 38.1592Z" fill="#5DB4CE"/>
<path fill-rule="evenodd" clip-rule="evenodd" d="M70.2492 30.6984H73.8128L68.0725 42.2303C66.7703 44.8317 65.277 45.8539 63.1861 45.8539C61.906 45.8539 60.9016 45.5138 59.963 44.9803L61.2435 42.5715C61.8416 42.9343 62.4388 43.0625 63.0152 43.0625C63.6124 43.0625 64.2957 42.7853 64.8929 41.8685L58.9177 30.6984H62.5879L66.6432 38.586L70.2492 30.6984Z" fill="#5DB4CE"/>
<path fill-rule="evenodd" clip-rule="evenodd" d="M78.1228 30.6984H81.409V36.6026H87.4703V30.6984H90.7565V45.6202H87.4703V39.63H81.409V45.6202H78.1228V30.6984Z" fill="#5DB4CE"/>
<path fill-rule="evenodd" clip-rule="evenodd" d="M96.4747 30.6984H99.761V37.2209L105.822 30.6984H109.791L103.71 37.0297L110.069 45.6202H106.12L101.489 39.2682L99.761 41.0578V45.6202H96.4747V30.6984Z" fill="#5DB4CE"/>
<path fill-rule="evenodd" clip-rule="evenodd" d="M119.308 30.5917H122.339L128.74 45.6203H125.305L123.939 42.2735H117.622L116.257 45.6203H112.905L119.308 30.5917ZM122.765 39.3747L120.78 34.5349L118.795 39.3747H122.765Z" fill="#5DB4CE"/>
<path fill-rule="evenodd" clip-rule="evenodd" d="M133.178 30.6984H139.281C142.845 30.6984 145 32.8083 145 35.8997C145 39.3529 142.311 41.1438 138.96 41.1438H136.464V45.6202H133.178V30.6984ZM139.068 38.2228C140.711 38.2228 141.672 37.243 141.672 35.9204C141.672 34.4503 140.647 33.6616 139.004 33.6616H136.464V38.2228H139.068Z" fill="#5DB4CE"/>
<path fill-rule="evenodd" clip-rule="evenodd" d="M37.6854 51.6575C37.636 52.1476 37.598 52.6354 37.574 53.1219C37.5489 53.6097 37.5295 54.0677 37.5145 54.4983H36.8542C36.8634 54.1959 36.8783 53.881 36.8978 53.5526C36.9183 53.2239 36.94 52.8918 36.9653 52.5588C36.9894 52.2245 37.017 51.8958 37.0469 51.5719C37.0765 51.2489 37.1087 50.9387 37.1431 50.642H37.7747C37.933 50.8984 38.1185 51.2512 38.3307 51.6988C38.5438 52.1453 38.7891 52.6617 39.0663 53.2446C39.3428 52.6617 39.5881 52.1453 39.8012 51.6988C40.0131 51.2512 40.199 50.8984 40.3581 50.642H40.9966C41.031 50.9387 41.0632 51.2489 41.0931 51.5719C41.1227 51.8958 41.149 52.2245 41.1744 52.5588C41.1997 52.8918 41.2214 53.2239 41.2409 53.5526C41.2614 53.881 41.2763 54.1959 41.2854 54.4983H40.6025C40.5875 54.0677 40.568 53.6097 40.544 53.1219C40.5187 52.6354 40.4819 52.1476 40.4316 51.6575C40.3527 51.8111 40.262 51.9954 40.1577 52.2096C40.0533 52.4248 39.9514 52.6445 39.8493 52.8669C39.7473 53.0888 39.6521 53.3017 39.5641 53.5045C39.4744 53.707 39.4046 53.8674 39.3551 53.9865H38.7765C38.7225 53.8629 38.6491 53.699 38.5575 53.4964C38.4658 53.2936 38.3696 53.0798 38.2677 52.8551C38.1666 52.6309 38.0636 52.4098 37.9603 52.1947C37.856 51.9805 37.7643 51.8007 37.6854 51.6575Z" fill="#5DB4CE"/>
<path fill-rule="evenodd" clip-rule="evenodd" d="M42.9045 52.577C42.9045 52.2359 42.9536 51.9383 43.0533 51.6839C43.1521 51.4287 43.2828 51.2181 43.4465 51.0497C43.6093 50.8812 43.7974 50.7553 44.0105 50.6719C44.2237 50.5872 44.4414 50.546 44.664 50.546C45.1832 50.546 45.5818 50.7073 45.8593 51.0315C46.1368 51.3554 46.2743 51.8478 46.2743 52.5105V52.625C46.2743 52.6721 46.272 52.7155 46.2674 52.7555H43.6242C43.6541 53.1554 43.7697 53.4597 43.9725 53.6669C44.1766 53.8756 44.493 53.9784 44.9229 53.9784C45.1659 53.9784 45.37 53.958 45.536 53.9154C45.7024 53.8742 45.8271 53.833 45.911 53.7931L46.0072 54.3711C45.9236 54.4159 45.7758 54.4639 45.5659 54.5132C45.355 54.5623 45.1166 54.5863 44.8495 54.5863C44.5126 54.5863 44.2224 54.536 43.9774 54.4354C43.732 54.3335 43.5303 54.1936 43.3721 54.0161C43.2139 53.8376 43.0959 53.6269 43.0189 53.3819C42.9422 53.1368 42.9045 52.8691 42.9045 52.577ZM45.5545 52.1992C45.5591 51.8876 45.4811 51.6312 45.3206 51.432C45.1601 51.2305 44.9378 51.1308 44.6571 51.1308C44.4976 51.1308 44.3579 51.162 44.2374 51.2237C44.1158 51.2856 44.0128 51.3658 43.929 51.4654C43.8442 51.5638 43.7789 51.677 43.732 51.8066C43.685 51.9347 43.6541 52.0652 43.6391 52.1992H45.5545Z" fill="#5DB4CE"/>
<path fill-rule="evenodd" clip-rule="evenodd" d="M47.5368 53.9343H47.9527C48.1155 53.6974 48.2451 53.4523 48.3426 53.2005C48.4388 52.9483 48.5109 52.6874 48.5616 52.4183C48.6107 52.1483 48.6428 51.8666 48.6578 51.5722C48.6727 51.2778 48.6828 50.9676 48.6876 50.6427H51.2184V53.9343H51.739V55.5726H51.0855V54.4977H48.1902V55.5726H47.5368V53.9343ZM50.5283 53.9343V51.2208H49.318C49.3134 51.4531 49.3008 51.6855 49.2813 51.9205C49.2618 52.1561 49.2296 52.3885 49.1851 52.6176C49.1403 52.8477 49.0773 53.0733 48.996 53.293C48.9135 53.5131 48.8114 53.7269 48.6876 53.9343H50.5283Z" fill="#5DB4CE"/>
<path fill-rule="evenodd" clip-rule="evenodd" d="M56.4749 50.642V54.498H55.8069V51.5615C55.6591 51.7491 55.495 51.9688 55.3173 52.2209C55.1386 52.4738 54.9609 52.7338 54.7822 53.0041C54.6044 53.2732 54.4335 53.5386 54.2697 53.8009C54.107 54.0631 53.966 54.2955 53.8467 54.498H53.2313V50.642H53.8994V53.415C54.028 53.2031 54.1736 52.9684 54.3373 52.7143C54.5001 52.4602 54.6697 52.207 54.8452 51.9575C55.0216 51.7079 55.197 51.4687 55.3725 51.2386C55.5476 51.0085 55.7127 50.8101 55.8664 50.642H56.4749Z" fill="#5DB4CE"/>
<path fill-rule="evenodd" clip-rule="evenodd" d="M61.4861 53.9269H62.0054V55.5732H61.3519V54.4983H58.4049V50.642H59.095V53.9269H60.795V50.642H61.4861V53.9269Z" fill="#5DB4CE"/>
<path fill-rule="evenodd" clip-rule="evenodd" d="M66.7424 50.642V54.498H66.074V51.5615C65.9261 51.7491 65.7624 51.9688 65.5847 52.2209C65.406 52.4738 65.2282 52.7338 65.0495 53.0041C64.8718 53.2732 64.7009 53.5386 64.5372 53.8009C64.3743 54.0631 64.2333 54.2955 64.114 54.498H63.4984V50.642H64.1667V53.415C64.295 53.2031 64.4407 52.9684 64.6047 52.7143C64.7675 52.4602 64.9371 52.207 65.1125 51.9575C65.2889 51.7079 65.4645 51.4687 65.6396 51.2386C65.815 51.0085 65.9801 50.8101 66.1337 50.642H66.7424Z" fill="#5DB4CE"/>
<path fill-rule="evenodd" clip-rule="evenodd" d="M71.8347 54.4977H71.1449V52.7928H69.3624V54.4977H68.6724V50.6417H69.3624V52.2135H71.1449V50.6417H71.8347V54.4977Z" fill="#5DB4CE"/>
<path fill-rule="evenodd" clip-rule="evenodd" d="M75.4429 54.5867C75.131 54.5867 74.8571 54.5377 74.6222 54.439C74.3872 54.3394 74.19 54.201 74.0282 54.0236C73.8677 53.846 73.7475 53.6341 73.6685 53.3891C73.5892 53.144 73.5493 52.874 73.5493 52.5773C73.5493 52.2807 73.5928 52.0084 73.6799 51.7611C73.766 51.5147 73.8885 51.3009 74.0467 51.1198C74.206 50.94 74.3996 50.7982 74.63 50.6975C74.8606 50.5966 75.1161 50.545 75.3981 50.545C75.5712 50.545 75.7441 50.5599 75.9173 50.5898C76.0915 50.6197 76.2565 50.6664 76.416 50.7307L76.2587 51.3168C76.1557 51.2674 76.0355 51.2276 75.8991 51.1977C75.7636 51.1678 75.618 51.1532 75.4647 51.1532C75.0793 51.1532 74.7837 51.2746 74.5786 51.517C74.3723 51.7589 74.2703 52.1126 74.2703 52.5773C74.2703 52.7848 74.293 52.9746 74.3402 53.1476C74.3872 53.3216 74.4616 53.4692 74.5623 53.5929C74.6644 53.7165 74.7941 53.8116 74.9532 53.8792C75.1115 53.9457 75.3041 53.9788 75.5323 53.9788C75.7145 53.9788 75.8806 53.9616 76.0297 53.9272C76.1776 53.8918 76.2945 53.8551 76.378 53.8162L76.4745 54.3945C76.4355 54.4185 76.378 54.4426 76.3036 54.4643C76.2302 54.487 76.1453 54.5065 76.0515 54.5237C75.9576 54.5409 75.8579 54.5558 75.7512 54.5685C75.6446 54.5811 75.5413 54.5867 75.4429 54.5867Z" fill="#5DB4CE"/>
<path fill-rule="evenodd" clip-rule="evenodd" d="M79.3702 52.3995C79.5239 52.5082 79.6889 52.6455 79.8676 52.8104C80.0454 52.9766 80.2205 53.1551 80.3914 53.3485C80.5623 53.5409 80.7215 53.7379 80.8694 53.9382C81.0185 54.1384 81.1446 54.3251 81.2488 54.498H80.4317C80.3225 54.3296 80.1954 54.1579 80.0499 53.9827C79.903 53.8064 79.7519 53.6383 79.5924 53.4744C79.4342 53.3118 79.274 53.1609 79.1099 53.0223C78.9471 52.8837 78.7934 52.7679 78.6501 52.674V54.498H77.959V50.6417H78.6501V52.2953C78.7684 52.1817 78.9049 52.049 79.0582 51.899C79.2119 51.7478 79.3666 51.5946 79.5225 51.4388C79.6785 51.283 79.8228 51.1354 79.957 50.9945C80.0899 50.8537 80.1987 50.7358 80.2838 50.6417H81.0847C80.9759 50.7609 80.8489 50.8949 80.7033 51.0461C80.5564 51.197 80.405 51.3506 80.2503 51.5096C80.0935 51.6676 79.9388 51.8247 79.7861 51.9802C79.6327 52.136 79.494 52.2758 79.3702 52.3995Z" fill="#5DB4CE"/>
<path fill-rule="evenodd" clip-rule="evenodd" d="M83.9359 50.5457C84.2134 50.5457 84.447 50.581 84.6374 50.6531C84.8278 50.7242 84.9812 50.8261 85.0971 50.9565C85.2142 51.0883 85.2967 51.2441 85.347 51.4239C85.396 51.6047 85.4205 51.8039 85.4205 52.0214V54.4315C85.3606 54.4406 85.2781 54.4545 85.1715 54.4714C85.065 54.4886 84.9457 54.5048 84.8115 54.5197C84.6787 54.5344 84.5331 54.5484 84.3771 54.561C84.2211 54.5733 84.0665 54.5792 83.9132 54.5792C83.6951 54.5792 83.4947 54.5574 83.3124 54.5126C83.1291 54.4681 82.9709 54.3971 82.8367 54.3011C82.7038 54.2047 82.5995 54.0778 82.5248 53.9196C82.4504 53.7616 82.4136 53.5705 82.4136 53.3485C82.4136 53.1356 82.4572 52.9535 82.5433 52.8C82.6304 52.6464 82.7484 52.5228 82.8962 52.429C83.0453 52.3353 83.2184 52.2651 83.4167 52.2206C83.6139 52.1772 83.8225 52.1541 84.0402 52.1541C84.1091 52.1541 84.1812 52.1577 84.2546 52.1658C84.329 52.1726 84.4002 52.1827 84.4665 52.1954C84.5331 52.208 84.5915 52.2184 84.641 52.2288C84.69 52.2389 84.7245 52.2457 84.7453 52.2505V52.0581C84.7453 51.9448 84.7326 51.8325 84.7072 51.7202C84.6832 51.6092 84.6387 51.5108 84.5743 51.4239C84.51 51.3379 84.422 51.2681 84.3109 51.2165C84.1994 51.1649 84.0551 51.1386 83.8764 51.1386C83.6493 51.1386 83.4498 51.1545 83.2792 51.1866C83.1083 51.2188 82.9809 51.2519 82.8962 51.2863L82.8149 50.7161C82.9043 50.6761 83.0521 50.6381 83.2598 50.6018C83.4683 50.5638 83.6929 50.5457 83.9359 50.5457ZM83.9957 54.0011C84.1581 54.0011 84.3027 53.9976 84.4301 53.9895C84.5562 53.9827 84.6604 53.969 84.7453 53.9495V52.8C84.6959 52.7747 84.6156 52.7542 84.5032 52.737C84.3921 52.7198 84.2579 52.7107 84.0987 52.7107C83.9957 52.7107 83.8855 52.7175 83.7686 52.7324C83.6529 52.7474 83.5463 52.7792 83.4498 52.8263C83.3523 52.872 83.2721 52.9373 83.208 53.0187C83.1438 53.0998 83.1119 53.2076 83.1119 53.3417C83.1119 53.589 83.1908 53.7606 83.3491 53.8567C83.5074 53.9528 83.7227 54.0011 83.9957 54.0011Z" fill="#5DB4CE"/>
<path fill-rule="evenodd" clip-rule="evenodd" d="M88.9022 52.9999C88.8278 52.9999 88.7557 52.9989 88.6868 52.9966C88.6179 52.9944 88.5503 52.9895 88.4863 52.985C88.3281 53.2222 88.1757 53.4763 88.0301 53.7454C87.8846 54.0145 87.7537 54.265 87.6403 54.4977H86.9424C87.0018 54.3546 87.0707 54.2079 87.1509 54.0566C87.2289 53.9057 87.3101 53.7591 87.3916 53.6159C87.4729 53.4718 87.5554 53.3364 87.6403 53.2073C87.7241 53.0791 87.803 52.9633 87.8774 52.859C87.7391 52.8101 87.6253 52.7493 87.5359 52.677C87.4476 52.6063 87.3755 52.5248 87.3205 52.4368C87.2666 52.3472 87.2276 52.2524 87.2058 52.1506C87.1831 52.0496 87.1727 51.9467 87.1727 51.8435C87.1727 51.6261 87.2126 51.4349 87.2951 51.2723C87.3767 51.1084 87.4889 50.9747 87.6321 50.8679C87.7767 50.7615 87.9454 50.6814 88.1413 50.6265C88.3359 50.5726 88.5503 50.5453 88.783 50.5453C89.1099 50.5453 89.387 50.5602 89.6151 50.5898C89.8422 50.6197 90.0336 50.6541 90.186 50.694V54.4977H89.5039V52.9999H88.9022ZM89.5039 51.1532C89.449 51.1441 89.3584 51.1337 89.2323 51.1233C89.1063 51.1143 88.962 51.1084 88.7979 51.1084C88.5159 51.1084 88.2891 51.1669 88.1149 51.2837C87.9418 51.3993 87.8557 51.5836 87.8557 51.8354C87.8557 52.0827 87.944 52.2535 88.1227 52.3472C88.3005 52.4414 88.5308 52.4881 88.8128 52.4881H89.5039V51.1532Z" fill="#5DB4CE"/>
<path fill-rule="evenodd" clip-rule="evenodd" d="M95.9844 52.3995C96.1381 52.5082 96.3032 52.6455 96.4819 52.8104C96.6596 52.9766 96.8337 53.1551 97.006 53.3485C97.1765 53.5409 97.3361 53.7379 97.4839 53.9382C97.6327 54.1384 97.7588 54.3251 97.8631 54.498H97.0459C96.9371 54.3296 96.8097 54.1579 96.6642 53.9827C96.5176 53.8064 96.3662 53.6383 96.207 53.4744C96.0488 53.3118 95.8882 53.1609 95.7241 53.0223C95.5617 52.8837 95.408 52.7679 95.2648 52.674V54.498H94.5736V50.6417H95.2648V52.2953C95.3827 52.1817 95.5192 52.049 95.6728 51.899C95.8262 51.7478 95.9812 51.5946 96.1369 51.4388C96.2928 51.283 96.4374 51.1354 96.5715 50.9945C96.7045 50.8537 96.8133 50.7358 96.8981 50.6417H97.6993C97.5905 50.7609 97.4631 50.8949 97.3175 51.0461C97.1711 51.197 97.0196 51.3506 96.8636 51.5096C96.709 51.6676 96.5531 51.8247 96.4006 51.9802C96.247 52.136 96.1082 52.2758 95.9844 52.3995Z" fill="#5DB4CE"/>
<path fill-rule="evenodd" clip-rule="evenodd" d="M102.495 52.5696C102.495 52.8766 102.45 53.1534 102.361 53.3998C102.273 53.6471 102.148 53.86 101.986 54.0385C101.826 54.216 101.634 54.3533 101.411 54.4497C101.188 54.5458 100.947 54.5938 100.684 54.5938C100.421 54.5938 100.178 54.5458 99.9562 54.4497C99.734 54.3533 99.5413 54.216 99.3808 54.0385C99.2202 53.86 99.0955 53.6471 99.0062 53.3998C98.9165 53.1534 98.8729 52.8766 98.8729 52.5696C98.8729 52.2684 98.9165 51.9925 99.0062 51.7429C99.0955 51.4933 99.2202 51.2792 99.3808 51.1019C99.5413 50.9231 99.734 50.7858 99.9562 50.6898C100.178 50.5934 100.421 50.5453 100.684 50.5453C100.947 50.5453 101.188 50.5934 101.411 50.6898C101.634 50.7858 101.826 50.9231 101.986 51.1019C102.148 51.2792 102.273 51.4933 102.361 51.7429C102.45 51.9925 102.495 52.2684 102.495 52.5696ZM101.775 52.5696C101.775 52.1347 101.677 51.79 101.482 51.5359C101.286 51.2804 101.02 51.1532 100.684 51.1532C100.347 51.1532 100.081 51.2804 99.8851 51.5359C99.6904 51.79 99.593 52.1347 99.593 52.5696C99.593 53.0048 99.6904 53.3494 99.8851 53.6046C100.081 53.8587 100.347 53.9859 100.684 53.9859C101.02 53.9859 101.286 53.8587 101.482 53.6046C101.677 53.3494 101.775 53.0048 101.775 52.5696Z" fill="#5DB4CE"/>
<path fill-rule="evenodd" clip-rule="evenodd" d="M104.945 51.6575C104.896 52.1476 104.858 52.6354 104.834 53.1219C104.809 53.6097 104.789 54.0677 104.774 54.4983H104.114C104.123 54.1959 104.138 53.881 104.159 53.5526C104.178 53.2239 104.2 52.8918 104.225 52.5588C104.249 52.2245 104.277 51.8958 104.306 51.5719C104.336 51.2489 104.369 50.9387 104.403 50.642H105.035C105.193 50.8984 105.378 51.2512 105.59 51.6988C105.804 52.1453 106.049 52.6617 106.326 53.2446C106.604 52.6617 106.848 52.1453 107.061 51.6988C107.274 51.2512 107.46 50.8984 107.618 50.642H108.256C108.291 50.9387 108.323 51.2489 108.353 51.5719C108.383 51.8958 108.41 52.2245 108.434 52.5588C108.46 52.8918 108.481 53.2239 108.502 53.5526C108.521 53.881 108.536 54.1959 108.545 54.4983H107.862C107.848 54.0677 107.828 53.6097 107.804 53.1219C107.779 52.6354 107.742 52.1476 107.692 51.6575C107.612 51.8111 107.522 51.9954 107.418 52.2096C107.313 52.4248 107.211 52.6445 107.109 52.8669C107.007 53.0888 106.912 53.3017 106.824 53.5045C106.734 53.707 106.664 53.8674 106.615 53.9865H106.036C105.982 53.8629 105.909 53.699 105.817 53.4964C105.726 53.2936 105.629 53.0798 105.527 52.8551C105.426 52.6309 105.323 52.4098 105.22 52.1947C105.116 51.9805 105.024 51.8007 104.945 51.6575Z" fill="#5DB4CE"/>
<path fill-rule="evenodd" clip-rule="evenodd" d="M113.482 54.4977H112.792V51.2197H111.07V54.4977H110.379V50.6417H113.482V54.4977Z" fill="#5DB4CE"/>
<path fill-rule="evenodd" clip-rule="evenodd" d="M116.66 50.5457C116.937 50.5457 117.171 50.581 117.361 50.6531C117.552 50.7242 117.705 50.8261 117.821 50.9565C117.938 51.0883 118.021 51.2441 118.071 51.4239C118.12 51.6047 118.144 51.8039 118.144 52.0214V54.4315C118.085 54.4406 118.002 54.4545 117.895 54.4714C117.789 54.4886 117.67 54.5048 117.536 54.5197C117.403 54.5344 117.257 54.5484 117.101 54.561C116.945 54.5733 116.79 54.5792 116.637 54.5792C116.419 54.5792 116.22 54.5574 116.036 54.5126C115.853 54.4681 115.695 54.3971 115.561 54.3011C115.428 54.2047 115.323 54.0778 115.249 53.9196C115.176 53.7616 115.138 53.5705 115.138 53.3485C115.138 53.1356 115.181 52.9535 115.267 52.8C115.354 52.6464 115.473 52.5228 115.62 52.429C115.769 52.3353 115.942 52.2651 116.141 52.2206C116.338 52.1772 116.546 52.1541 116.764 52.1541C116.833 52.1541 116.905 52.1577 116.979 52.1658C117.053 52.1726 117.124 52.1827 117.191 52.1954C117.257 52.208 117.316 52.2184 117.365 52.2288C117.414 52.2389 117.448 52.2457 117.469 52.2505V52.0581C117.469 51.9448 117.457 51.8325 117.432 51.7202C117.407 51.6092 117.363 51.5108 117.298 51.4239C117.234 51.3379 117.146 51.2681 117.035 51.2165C116.924 51.1649 116.779 51.1386 116.6 51.1386C116.373 51.1386 116.174 51.1545 116.003 51.1866C115.832 51.2188 115.705 51.2519 115.62 51.2863L115.539 50.7161C115.628 50.6761 115.776 50.6381 115.984 50.6018C116.192 50.5638 116.417 50.5457 116.66 50.5457ZM116.72 54.0011C116.882 54.0011 117.027 53.9976 117.154 53.9895C117.28 53.9827 117.384 53.969 117.469 53.9495V52.8C117.42 52.7747 117.34 52.7542 117.227 52.737C117.116 52.7198 116.982 52.7107 116.823 52.7107C116.72 52.7107 116.609 52.7175 116.492 52.7324C116.377 52.7474 116.27 52.7792 116.174 52.8263C116.077 52.872 115.996 52.9373 115.932 53.0187C115.868 53.0998 115.836 53.2076 115.836 53.3417C115.836 53.589 115.915 53.7606 116.073 53.8567C116.231 53.9528 116.447 54.0011 116.72 54.0011Z" fill="#5DB4CE"/>
<path fill-rule="evenodd" clip-rule="evenodd" d="M123.193 54.4977H122.503V52.7928H120.72V54.4977H120.03V50.6417H120.72V52.2135H122.503V50.6417H123.193V54.4977Z" fill="#5DB4CE"/>
<path fill-rule="evenodd" clip-rule="evenodd" d="M128.367 50.642V54.498H127.699V51.5615C127.551 51.7491 127.387 51.9688 127.209 52.2209C127.031 52.4738 126.853 52.7338 126.674 53.0041C126.497 53.2732 126.326 53.5386 126.162 53.8009C125.999 54.0631 125.858 54.2955 125.739 54.498H125.123V50.642H125.792V53.415C125.92 53.2031 126.065 52.9684 126.23 52.7143C126.392 52.4602 126.562 52.207 126.737 51.9575C126.914 51.7079 127.089 51.4687 127.264 51.2386C127.44 51.0085 127.605 50.8101 127.759 50.642H128.367Z" fill="#5DB4CE"/>
<path fill-rule="evenodd" clip-rule="evenodd" d="M131.894 52.9999C131.819 52.9999 131.747 52.9989 131.678 52.9966C131.609 52.9944 131.542 52.9895 131.478 52.985C131.319 53.2222 131.167 53.4763 131.021 53.7454C130.876 54.0145 130.745 54.265 130.631 54.4977H129.934C129.993 54.3546 130.062 54.2079 130.142 54.0566C130.22 53.9057 130.301 53.7591 130.383 53.6159C130.464 53.4718 130.548 53.3364 130.631 53.2073C130.715 53.0791 130.794 52.9633 130.869 52.859C130.73 52.8101 130.617 52.7493 130.527 52.677C130.439 52.6063 130.367 52.5248 130.312 52.4368C130.258 52.3472 130.219 52.2524 130.197 52.1506C130.175 52.0496 130.164 51.9467 130.164 51.8435C130.164 51.6261 130.204 51.4349 130.286 51.2723C130.368 51.1084 130.48 50.9747 130.623 50.8679C130.768 50.7615 130.938 50.6814 131.133 50.6265C131.328 50.5726 131.542 50.5453 131.774 50.5453C132.101 50.5453 132.378 50.5602 132.606 50.5898C132.833 50.6197 133.025 50.6541 133.177 50.694V54.4977H132.495V52.9999H131.894ZM132.495 51.1532C132.44 51.1441 132.35 51.1337 132.224 51.1233C132.098 51.1143 131.953 51.1084 131.789 51.1084C131.507 51.1084 131.28 51.1669 131.106 51.2837C130.933 51.3993 130.847 51.5836 130.847 51.8354C130.847 52.0827 130.936 52.2535 131.114 52.3472C131.292 52.4414 131.522 52.4881 131.804 52.4881H132.495V51.1532Z" fill="#5DB4CE"/>
<path fill-rule="evenodd" clip-rule="evenodd" d="M30.8979 61.7894C30.8979 61.7894 30.2939 62.4281 29.2279 59.4111C29.2279 59.4111 27.9129 56.0406 27.4866 54.4432C27.4866 54.4432 27.3446 53.6269 26.918 53.1655C26.918 53.1655 26.6337 52.9171 26.5271 51.9588C26.5271 51.9588 25.4614 47.9126 25.568 44.3986C25.568 44.3986 25.3912 33.2195 25.2479 31.7655C25.2479 31.7655 24.9636 31.2686 24.9295 29.6713C24.9295 29.6713 24.7863 27.5772 24.5029 26.0512C24.5029 26.0512 23.8989 25.554 23.8277 23.744C23.8277 23.744 23.0463 20.0184 23.4726 17.7823C23.4726 17.7823 24.2186 10.9321 30.1516 5.28971C30.1516 5.28971 31.0045 4.61526 31.1822 4.08301C31.1822 4.08301 31.5373 3.23109 32.8523 2.30839C32.8523 2.30839 33.5983 1.63394 33.5629 0.95957C33.5629 0.95957 33.4472 0.613903 33.8735 0.28512L34.1314 0.0722195C34.1314 0.0722195 33.8826 -0.0156827 33.6603 0.00246853C33.4377 0.0196686 32.9942 0.26792 32.6745 0.28512C32.3548 0.303668 31.2267 0.365335 29.9739 1.51029L28.7382 2.2636C28.7382 2.2636 28.2947 2.5132 28.18 2.60142C28.0643 2.69067 27.6208 3.16031 27.5051 3.29307C27.3891 3.42711 26.2165 4.43811 26.1284 4.52736C26.0391 4.61526 25.2664 5.55548 25.2664 5.55548C25.2664 5.55548 23.4635 8.03998 22.7975 9.12295C22.7975 9.12295 22.2909 9.95672 22.2369 10.0723C22.1843 10.1878 21.9975 10.5244 21.9091 10.6848C21.8198 10.8441 21.6774 11.1014 21.6157 11.2608C21.5536 11.4211 21.3763 11.8379 21.3142 12.0245C21.2511 12.2098 21.1445 12.5214 21.0919 12.645C21.038 12.7696 20.8694 13.2928 20.8694 13.2928C20.8694 13.2928 20.5048 13.9582 20.4431 14.1619C20.381 14.3657 20.2036 14.7744 20.1679 14.8545C20.1325 14.9337 20.0704 15.0941 20.0431 15.2177C20.0168 15.3423 19.9901 15.5724 19.9639 15.6883C19.9366 15.8039 19.6795 16.5227 19.5902 16.6727C19.5021 16.8239 19.4836 17.0277 19.4219 17.2591C19.3598 17.4892 19.2967 17.8706 19.2887 18.0478C19.2795 18.2253 19.2269 18.4658 19.1915 18.6512C19.1557 18.8381 19.0401 20.7454 19.0755 21.2251C19.1112 21.7038 19.1993 22.3688 19.1821 22.6882C19.1639 23.0079 19.1821 23.176 19.1993 23.4165C19.2178 23.6557 19.5021 24.9863 19.4836 25.4569C19.4664 25.9275 19.5099 26.3176 19.5375 26.5124C19.5638 26.7081 19.6178 26.8937 19.635 27.1066C19.6532 27.3195 19.7598 27.9138 19.7679 28.2345C19.777 28.5529 19.9811 30.3814 19.8663 31.17C19.8663 31.17 19.6876 32.5542 19.6532 32.9275C19.6178 33.2997 19.573 33.8414 19.573 34.1159C19.573 34.3908 19.5457 34.9588 19.5099 35.2071C19.4745 35.4557 19.2967 37.6208 19.2967 37.9755C19.2967 38.3306 19.3244 38.9524 19.3244 39.2795C19.3244 39.6083 19.2623 43.3075 19.3244 43.6269C19.3861 43.9466 19.3955 44.621 19.4124 44.9313C19.4309 45.2425 19.3955 47.158 19.2967 47.6377C19.1993 48.1164 19.031 48.6133 19.031 48.6133C19.031 48.6133 18.9598 48.8538 18.9598 49.0219C18.9598 49.1903 19.0492 50.3707 19.1376 50.8767C19.2269 51.3817 19.2623 51.9496 19.2795 52.198C19.2967 52.4465 19.5099 53.857 19.5193 54.2659C19.5285 54.6733 19.7062 55.3123 19.8309 55.6054C19.9547 55.8975 20.7628 58.675 21.0023 59.0917C21.243 59.5084 21.6774 60.3694 21.6774 60.3694C21.6774 60.3694 22.3354 61.842 22.6369 62.2506C22.9394 62.6582 23.366 63.3063 23.57 63.6611C23.7741 64.0161 23.7121 64.1752 23.7211 64.2462C23.7293 64.3182 23.4096 63.9979 23.25 63.8558C23.0899 63.715 22.1131 63.1288 21.7934 62.9604C21.4734 62.7923 20.5324 62.1532 20.5324 62.1532L19.6259 61.4161C19.6259 61.4161 19.5099 61.4606 19.3244 61.5498C19.1376 61.6381 18.6401 60.769 18.6401 60.769L17.512 58.6659C17.512 58.6659 16.8726 58.1872 16.6685 57.664C16.4645 57.1395 15.9222 56.6426 15.9222 56.6426C15.9222 56.6426 15.8156 56.7939 15.6379 56.7319C15.4605 56.6702 15.2379 56.2088 15.2025 56.1023C15.1671 55.9959 14.4208 54.9037 14.3233 54.6827C14.2258 54.4604 14.0919 54.2659 13.9945 54.0699C13.897 53.8756 13.701 53.635 13.7192 53.6088C13.7375 53.5821 13.8798 53.6795 13.9324 53.7058C13.9863 53.7334 14.4656 53.5286 14.3405 52.4018C14.3405 52.4018 14.1718 51.7367 14.1365 51.5144C14.1011 51.2934 14.1273 51.0714 14.1273 51.0714C14.1273 51.0714 13.7732 50.6901 13.7732 50.1578C13.7732 50.1578 13.56 49.5545 13.5243 48.6133C13.5243 48.6133 13.4086 47.5932 13.3995 47.4157C13.3905 47.2382 13.3995 46.5823 13.3995 46.5823C13.3995 46.5823 13.444 45.2597 13.3021 44.8969C13.1598 44.5327 13.0441 44.6391 12.9375 44.3461C12.831 44.0531 13.0177 43.9738 12.7598 43.7966C12.5018 43.6191 11.4279 42.7934 10.8857 42.8908C10.3437 42.9882 10.3528 42.8382 10.2199 43.0774C10.0867 43.3166 10.1134 43.548 10.0158 43.7427C9.91713 43.9384 9.78421 43.8937 9.70391 44.0884C9.62495 44.2841 9.6513 44.5771 9.58012 44.7982C9.50902 45.0205 9.34881 44.9047 9.34881 45.1007C9.34881 45.2951 9.37611 45.4281 9.48268 45.641C9.58925 45.8539 9.62496 46.2444 9.61591 46.4138C9.60647 46.5823 9.60647 46.7594 9.60647 46.7594C9.60647 46.7594 10.0513 47.514 10.0237 47.9044C10.0237 47.9044 10.1224 48.241 10.1488 48.3832C10.1751 48.525 10.2199 48.6671 10.2105 48.9602C10.2014 49.252 10.0422 49.164 10.2105 49.448C10.3791 49.732 10.8502 50.2195 10.9042 50.5297C10.9568 50.84 11.0725 51.1162 11.1699 51.2934C11.2675 51.471 11.3649 51.4355 11.57 51.7195C11.774 52.0035 11.8715 52.1363 11.9781 52.3044C12.0846 52.4729 12.2006 52.5439 12.0043 52.491C11.8098 52.4374 11.6765 52.26 11.4097 52.1717C11.1437 52.0824 10.7882 51.8971 10.5305 51.7459C10.2726 51.5946 10.2726 51.3369 9.96197 51.4171C9.6513 51.4972 9.52624 51.4972 9.34881 51.8614C9.17106 52.2245 9.32215 52.2336 8.99339 52.5176C8.66551 52.8016 8.54981 52.8723 8.48776 53.1563C8.42475 53.4403 8.46958 53.6795 8.54981 54.0962C8.63011 54.5143 8.72756 54.8865 8.74446 55.2861C8.76303 55.6843 8.81564 55.8803 8.87865 56.3152C8.9407 56.7491 9.26041 57.7166 9.55386 58.3647C9.84627 59.0116 10.1936 59.5795 10.2989 59.7571C10.4055 59.9346 10.6897 60.4142 10.8594 60.6534C11.028 60.8927 11.2057 61.0887 11.3386 61.2568C11.4715 61.4252 11.6492 61.6381 11.7204 61.7537C11.7912 61.8696 11.9072 61.9932 11.8805 62.0467C11.8543 62.0997 11.7295 62.1178 11.7295 62.1178C11.7295 62.1178 11.0634 62.0997 10.9478 62.0902C10.833 62.0823 10.7964 62.0377 10.6199 62.2152C10.4421 62.3927 10.424 62.3126 10.3174 62.4728C10.2105 62.6319 10.2553 62.6319 10.2989 62.9068C10.3437 63.1814 10.6988 63.6877 11.0189 63.9006C11.3386 64.1135 12.2451 64.6458 12.582 64.9298C12.9203 65.2137 13.0626 65.3029 13.8613 65.7645C14.6615 66.2259 16.3131 67.0948 16.9528 67.3077C17.5923 67.521 19.5638 68.3186 19.9901 68.6922C20.4167 69.0642 20.8785 69.1891 21.1985 69.2063C21.5182 69.2245 21.8909 69.2599 22.3 69.4546C22.708 69.6503 22.904 69.8989 23.0817 69.7568C23.2594 69.6149 23.366 69.5611 23.4369 69.2417C23.508 68.9223 23.508 68.8867 23.8989 68.5673C24.2888 68.2479 24.573 67.9993 24.8044 67.9286C25.0361 67.8584 25.3545 67.8756 25.3191 67.6446C25.2836 67.4145 25.1241 67.468 25.1069 67.1486C25.0888 66.828 25.0361 66.7044 25.1953 66.6164C25.3545 66.5272 25.3376 66.6862 25.568 66.7936C25.7993 66.9004 26.3497 67.1658 26.5629 67.3077C26.776 67.4499 26.776 67.3606 27.0431 67.396C27.3089 67.4314 27.5932 67.468 27.7537 67.6982C27.9129 67.9286 27.9486 68.1243 28.2157 68.0178C28.4815 67.9114 29.0683 67.6982 29.4238 67.9467C29.4238 67.9467 29.8501 68.2122 29.9739 68.5319C30.0989 68.8513 30.1161 68.9406 30.241 68.9051C30.3647 68.8694 30.4531 68.7802 30.5596 68.4962C30.6675 68.2122 30.8621 68.2307 30.8621 67.964C30.8621 67.6982 30.8086 67.6089 30.9505 67.5917C31.0929 67.5735 31.307 67.5917 31.3954 67.3606C31.4834 67.1305 31.3242 67.0056 31.6796 66.9712C32.0348 66.9357 32.4614 66.9529 32.4614 66.9529C32.4614 66.9529 33.172 67.112 33.4735 67.0948C33.776 67.0766 34.0418 67.1305 34.1314 66.9884C34.2195 66.8465 34.2907 66.7583 34.3801 66.5979C34.4684 66.4376 34.8067 66.3678 34.8067 66.2431C34.8067 66.1195 34.6643 66.0118 34.8067 66.0118C34.9486 66.0118 37.8258 66.1549 38.4126 65.8709C38.4126 65.8709 39.0166 65.8356 39.4601 65.8356C39.9049 65.8356 40.2246 65.942 40.313 65.7998C40.4023 65.658 40.3312 65.4623 40.5801 65.2676C40.8286 65.0719 40.971 65.2494 41.0054 65.0547C41.0421 64.859 40.917 64.7353 41.1302 64.5932C41.3433 64.4513 41.8408 64.5221 42.5345 64.3974C43.2268 64.2738 44.6652 64.2381 44.6652 64.2381C44.6652 64.2381 45.9445 64.1673 46.4773 64.1673C47.0105 64.1673 47.8277 64.2738 48.2358 64.2738C48.6448 64.2738 49.0357 64.3618 49.6755 64.3618C50.3149 64.3618 50.8834 64.4513 51.185 64.4513C51.4875 64.4513 51.8956 64.5578 52.2865 64.6458C52.6774 64.7353 52.9434 64.8418 53.3343 64.9298C53.7249 65.019 54.1697 65.0719 54.454 65.1783C54.7383 65.2848 55.2884 65.3559 55.4846 65.3387C55.6793 65.3201 55.5372 65.2494 55.6266 65.0719C55.715 64.8943 55.7504 64.8061 55.8397 64.6997C55.9281 64.5932 55.9635 64.5221 56.124 64.5039C56.2833 64.4867 56.4795 64.4157 56.461 64.3264C56.4437 64.2381 56.3372 64.2028 56.3902 64.0424C56.4438 63.8834 56.5322 63.7412 56.5322 63.6348C56.5322 63.5283 56.6572 63.5283 56.5322 63.4576C56.5322 63.4576 56.1059 63.3865 55.7689 63.3154C55.4307 63.2443 55.253 63.209 54.8267 63.0133C54.4 62.8185 52.1087 62.0023 51.327 62.0195C50.5452 62.0377 49.0175 62.357 49.0175 62.357C49.0175 62.357 48.3251 62.4992 47.5973 62.4807C46.8681 62.4635 46.3708 62.5703 45.8206 62.6228C45.2693 62.6767 43.0845 62.7832 42.178 62.8357C41.2724 62.8896 41.0593 62.8711 40.1892 63.0486C39.3181 63.2262 39.1049 63.1551 37.9677 63.2973C36.8309 63.4391 37.1688 63.5102 36.2632 63.5283C35.3567 63.5455 35.4987 63.5813 34.8774 63.5455C34.2552 63.5102 34.3801 63.6705 33.9352 63.5813C33.4917 63.493 31.8574 62.8004 31.573 62.0549C31.573 62.0549 31.4135 61.6644 31.253 61.7183C31.0929 61.7709 30.8979 61.7894 30.8979 61.7894Z" fill="#5DB4CE"/>
<path fill-rule="evenodd" clip-rule="evenodd" d="M10.0951 39.2445C10.0951 39.2445 9.26885 38.9787 9.05571 38.4464C8.84225 37.9142 8.70934 36.9019 8.68299 36.2103C8.65673 35.5177 8.46985 33.4957 8.68299 33.0423C8.68299 33.0423 8.94883 32.7503 9.08301 32.4033C9.21585 32.0577 9.34908 31.5527 9.58856 31.4725C9.82932 31.3923 9.96223 31.2596 10.5217 31.6582C10.5217 31.6582 11.0546 32.1115 11.4809 32.0051C11.4809 32.0051 11.9075 31.9788 11.8535 32.5373C11.8535 32.5373 11.8009 32.8567 12.1732 32.9898C12.1732 32.9898 12.1996 33.1225 12.1732 33.522C12.147 33.9215 12.2272 34.0543 12.3074 34.4804C12.3864 34.9062 12.5206 35.678 12.4929 35.9711C12.4667 36.2629 12.5275 37.0359 12.4966 37.3553C12.4667 37.6737 12.6775 38.2059 12.5056 38.5529C12.3338 38.8985 12.2535 39.1117 12.0404 39.2445C11.8273 39.3773 11.747 39.5375 11.694 39.6703C11.6404 39.8031 11.5611 39.8832 11.4545 39.8293C11.348 39.7768 11.3204 39.6703 10.948 39.5639C10.5753 39.4574 10.2615 39.3085 10.0951 39.2445Z" fill="#5DB4CE"/>
<path fill-rule="evenodd" clip-rule="evenodd" d="M12.0137 27.5863C12.0137 27.5863 11.8269 28.1711 12.0137 28.3315C12.2005 28.4905 12.2535 28.5444 12.2272 28.8903C12.2005 29.236 12.147 29.2898 12.3601 29.7419C12.5733 30.1944 12.4667 30.2483 12.8404 30.5676C13.2127 30.887 13.5864 30.9133 13.959 31.1262C14.3327 31.3394 14.5458 31.5523 14.7856 31.6049C15.0251 31.6588 14.9987 31.1115 15.2382 31.3852C15.4776 31.6588 15.4776 31.8178 15.6382 31.7652C15.7977 31.7113 15.824 31.4459 15.9845 31.233C16.1437 31.0197 16.3845 30.9934 16.4634 30.753C16.5437 30.5137 16.5977 30.3547 16.57 30.0879C16.5437 29.8222 16.3845 29.5028 16.3043 28.9968C16.224 28.4905 16.2503 28.2776 15.9579 27.8518C15.6645 27.426 15.6382 27.2127 15.4514 27.2666C15.2645 27.3195 15.1053 27.426 14.8382 27.3195C14.5721 27.2127 14.6514 27.2929 14.359 27.1339C14.0656 26.9735 13.9292 27.0011 13.7849 26.8934C13.6393 26.7869 13.7196 26.8145 13.3995 26.7869C13.0798 26.7606 13.0798 26.5477 12.8666 26.7081C12.6535 26.8671 12.6545 26.8145 12.5742 27.0274C12.494 27.2403 12.5733 27.3468 12.414 27.4532C12.2536 27.5597 12.0586 27.4156 12.0137 27.5863Z" fill="#5DB4CE"/>
<path fill-rule="evenodd" clip-rule="evenodd" d="M12.5466 26.7609C12.5466 26.7609 12.698 26.7139 12.7692 26.6487C12.8404 26.5835 12.947 26.4952 12.9904 26.4952C13.035 26.4952 13.1325 26.4507 13.1691 26.5308C13.2046 26.6097 13.2391 26.6351 13.3112 26.6487C13.3823 26.6636 13.6657 26.6487 13.6657 26.6487C13.6657 26.6487 13.7995 26.6899 13.8524 26.7609C13.9061 26.8317 14.0299 26.8937 14.0299 26.8937C14.0299 26.8937 14.3499 26.9566 14.3853 27.0001C14.4208 27.0449 14.4746 27.0712 14.5367 27.0985C14.5984 27.1251 14.8117 27.1695 14.8117 27.1695C14.8117 27.1695 14.9631 27.2406 15.0777 27.213C15.1934 27.1867 15.309 27.2316 15.363 27.0985C15.363 27.0985 15.0342 27.0654 15.363 26.8512C15.6909 26.636 15.8332 26.5948 15.8332 26.4825C15.8332 26.3706 15.8159 26.2641 15.7711 26.043C15.7263 25.8207 15.6554 24.3563 15.6999 23.9215C15.7448 23.4875 15.7711 22.9277 15.7448 22.6791C15.7171 22.4318 15.7263 22.3071 15.4777 22.0942C15.2288 21.881 15.2383 21.8285 14.9448 21.6681C14.6524 21.5091 14.7236 21.375 14.4828 21.2962C14.2433 21.216 14.3327 21.4104 14.0484 21.1803C13.7641 20.9492 13.0626 22.0848 13.0087 22.236C12.956 22.3874 12.8573 22.6791 12.8573 22.7684C12.8573 22.8566 12.8218 22.7593 12.7152 22.6619C12.6087 22.5645 12.236 22.5645 12.1743 22.4753C12.1112 22.3874 11.827 22.2624 11.827 22.2624C11.827 22.2624 11.6583 22.2007 11.49 22.1822C11.3213 22.165 11.0188 22.4662 10.9214 22.6528C10.824 22.8394 10.7885 22.9985 10.7174 23.2035C10.6462 23.4074 10.5305 23.6203 10.5753 23.9215C10.6199 24.2236 10.6543 24.4629 10.6371 24.6498C10.6199 24.8363 10.7528 25.0847 10.7174 25.2703C10.6819 25.4569 10.5753 25.5277 10.7437 25.7406C10.9123 25.9538 10.9662 25.9629 11.1173 26.0511C11.2675 26.1404 11.5254 26.3176 11.7204 26.3442C11.9163 26.3706 12.236 26.486 12.289 26.5743C12.3426 26.6636 12.5466 26.7609 12.5466 26.7609Z" fill="#5DB4CE"/>
<path fill-rule="evenodd" clip-rule="evenodd" d="M62.75 66.8199C62.75 66.8199 62.6434 66.5531 62.9369 66.3402C63.2293 66.1273 62.9105 66.0747 63.0964 65.9154C63.2833 65.755 63.5766 65.7015 63.5227 65.5685C63.4701 65.4357 62.9632 65.2491 62.5896 65.1427C62.2172 65.0362 61.7906 65.0638 61.7379 64.8233C61.684 64.5841 61.9774 64.2907 61.9774 64.2907C61.9774 64.2907 62.1106 64.3971 62.1642 64.1053C62.2172 63.8123 62.0842 63.652 62.404 63.652C62.7237 63.652 63.1088 63.7598 63.5295 63.7598C63.9489 63.7598 68.3724 63.6257 69.6253 63.1733C69.6253 63.1733 70.6111 62.9341 71.2241 62.6949C71.8363 62.4544 72.0495 62.2951 72.3166 62.2152C72.5823 62.135 72.6892 62.5083 73.0629 62.2152C73.4352 61.9218 73.1155 61.6826 73.7825 61.6025C74.4486 61.5236 74.4486 61.496 74.7683 61.63C75.088 61.7628 75.1946 62.0019 75.4871 62.0822C75.7805 62.1623 76.0476 62.2951 76.3133 62.2687C76.5795 62.2415 76.5002 62.1084 76.5795 62.2415C76.6597 62.3752 76.5795 62.7475 76.5795 62.7475C76.5795 62.7475 76.2331 62.9341 76.1528 63.0668C76.0738 63.1995 76.0738 63.3599 75.9936 63.4127C75.9134 63.4663 76.02 63.4663 75.6213 63.5455C75.221 63.6257 74.2882 63.8386 74.2882 63.8386C74.2882 63.8386 75.2476 63.8649 76.4466 63.5192C76.4466 63.5192 77.4596 63.1995 77.8586 63.147C78.2586 63.0931 79.005 62.8539 79.5115 62.641C80.017 62.4281 80.6302 62.1623 80.9235 62.0019C81.217 61.8429 81.6699 61.5362 81.6699 61.5362C81.6699 61.5362 81.4831 61.3632 81.6436 61.124C81.8028 60.8846 81.9093 60.778 82.0159 60.6454C82.1225 60.5113 82.0423 60.4325 82.2028 60.192C82.362 59.9528 82.0962 59.9528 82.5754 59.7924C83.0557 59.6331 82.8689 59.6331 83.4819 59.5529C84.0941 59.4731 84.6546 59.4464 85.1875 59.7132C85.7206 59.9791 85.9325 60.0063 86.1995 60.0592C86.4657 60.1118 86.0929 60.2182 86.4657 60.2721C86.8393 60.326 87.2919 60.2721 87.4251 60.2984C87.559 60.326 87.5054 60.2984 87.4524 60.6454C87.3985 60.991 87.6383 61.124 87.3722 61.5236C87.1051 61.9218 87.2919 61.8429 86.8919 62.0549C86.4933 62.2687 86.4657 62.2415 86.3065 62.4544C86.146 62.6673 86.0394 62.8539 85.7996 63.0129C85.5601 63.1733 85.1602 63.493 85.0006 63.652C84.8401 63.8123 84.2006 64.451 84.2006 64.451C84.2006 64.451 82.7886 65.6223 81.7765 65.755C81.7765 65.755 80.1772 66.0485 79.8312 66.101C79.4852 66.1549 78.3125 66.5531 77.9928 66.5268C77.6728 66.5005 76.9531 66.607 76.9531 66.607C76.9531 66.607 73.9155 66.7135 73.1695 66.8199C72.4232 66.9264 69.2516 67.0857 68.6395 67.1659C68.0263 67.2461 67.6261 67.3525 67.0139 67.3525C66.4008 67.3525 65.8416 67.4852 65.5216 67.4327C65.2018 67.3788 63.1237 67.2723 62.75 66.8199Z" fill="#5DB4CE"/>
<path fill-rule="evenodd" clip-rule="evenodd" d="M96.4055 60.5648C96.4055 60.5648 96.1397 60.2455 96.4055 60.1654C96.6713 60.0862 96.965 60.0862 96.8847 59.9525C96.8055 59.8194 96.6187 59.8161 96.8984 59.4991C97.1782 59.1807 97.3374 59.0217 97.5781 59.0742C97.8176 59.1281 98.6705 59.6328 98.6705 59.6328C98.6705 59.6328 99.2297 59.8093 99.7366 59.8149C100.243 59.8196 100.429 59.5698 100.402 59.8149C100.376 60.0589 100.243 59.9525 100.243 60.2994C100.243 60.6451 100.296 60.6451 100.002 60.858C99.7102 61.0709 99.7102 61.0971 99.4695 61.3104C99.2297 61.5233 98.8836 61.5495 98.8836 61.5495C98.8836 61.5495 98.777 61.5758 98.5376 61.497C98.2978 61.4168 97.765 61.0709 97.765 61.0709C97.765 61.0709 97.0979 60.7239 96.8318 60.7239C96.5647 60.7239 96.4055 60.5648 96.4055 60.5648Z" fill="#5DB4CE"/>
<path fill-rule="evenodd" clip-rule="evenodd" d="M92.7814 61.4431C92.7814 61.4431 93.234 61.15 93.288 60.9108C93.3406 60.6716 93.234 60.4587 93.234 60.4587L93.0416 60.192C93.0416 60.192 92.3814 59.9261 92.0351 59.7934C91.6891 59.6593 91.5022 59.5805 91.1825 59.7658C90.8625 59.9525 90.7033 60.0271 90.4098 60.3085C90.1165 60.5915 89.7175 60.8583 89.4504 61.1237C89.1846 61.3896 88.4383 62.2688 88.4383 62.2688L86.7328 63.4709C86.7328 63.4709 85.9062 64.1853 85.2142 64.6639C84.5205 65.1427 82.8689 66.4477 80.7907 66.6596C80.7907 66.6596 79.5378 66.7398 78.9783 66.9001C78.4191 67.0591 77.3795 67.3522 76.6334 67.5917C75.8871 67.8309 76.1805 68.0176 74.7684 68.124C73.355 68.2305 72.7429 68.7893 68.7461 68.7091C64.748 68.6299 63.5227 68.9759 62.6172 68.9759C61.7104 68.9759 59.9785 69.0298 59.1796 68.9759C58.3796 68.9231 57.5544 68.8695 56.9146 68.9496C56.2751 69.0298 56.2489 69.1087 55.5814 69.1363C54.9157 69.1625 50.5186 69.5825 49.7197 69.799C48.9197 70.0142 47.7208 70.1998 46.6823 70.3864C45.6426 70.573 44.9502 70.8385 44.47 70.8924C43.9911 70.945 43.1908 71.1319 42.9776 71.1582C42.7645 71.1855 42.2313 71.3984 42.2313 71.3984C42.2313 71.3984 43.271 73.1009 43.1105 73.6073L45.3492 73.1285C45.3492 73.1285 48.3602 72.5424 49.346 72.3295C50.3318 72.1162 54.6223 71.5577 54.6223 71.5577L58.4336 71.718L67.7671 71.6379C67.7671 71.6379 76.8729 70.9989 77.9929 70.7597C79.1116 70.5204 81.1897 70.0934 81.1897 70.0934C81.1897 70.0934 82.8952 69.9606 84.1217 69.4556C85.347 68.9496 89.9569 66.2348 89.9569 66.2348L91.1023 64.9031C91.1023 64.9031 92.2749 64.8229 93.1814 64.3709C94.087 63.9188 94.1672 64.1054 94.5935 63.7857C95.0201 63.4663 94.8596 63.5728 95.153 63.3336C95.4464 63.0931 95.6056 62.7475 95.6056 62.7475C95.6056 62.7475 95.9529 62.4015 95.553 62.3213C95.153 62.2425 95.2595 62.4278 94.6198 62.1623C93.9804 61.8955 93.3945 61.8154 93.1814 61.7089C92.9682 61.6034 92.3814 61.5498 92.7814 61.4431Z" fill="#5DB4CE"/>
<path fill-rule="evenodd" clip-rule="evenodd" d="M40.7574 80.1638C40.7425 80.0941 40.6863 79.9957 40.7574 79.8273C40.8283 79.6578 40.9969 79.5513 41.0151 79.3304C41.0323 79.108 40.6795 78.9078 40.6175 78.6595C40.5544 78.4109 40.3322 77.8982 40.4228 77.6599C40.5499 77.1903 40.8995 77.2809 40.9085 76.9877C40.918 76.6947 41.0142 74.6325 40.8696 74.0064C40.7263 73.3814 40.4469 71.8242 40.0732 71.5311C39.7006 71.238 39.993 71.1189 39.5273 70.8258C39.0611 70.5325 38.8077 70.1605 37.9021 69.7207C36.9956 69.2823 36.583 68.7097 36.4761 68.5232C36.3695 68.3366 36.1164 68.1902 35.7563 67.9646C35.3964 67.7377 35.1569 67.5512 35.2635 67.3921C35.3701 67.2328 35.7037 67.2594 35.7037 67.2594C35.7037 67.2594 35.7301 67.1526 35.5568 67.0724C35.3837 66.9926 35.6498 66.7267 35.6498 66.7267C35.6498 66.7267 37.2351 66.9799 37.6087 67.3781C37.9811 67.778 38.5682 67.9909 38.7011 67.9646C38.8339 67.938 38.9808 67.778 39.0611 67.6716C39.1414 67.5648 39.8597 67.2454 39.8597 67.2454C39.8597 67.2454 40.5131 67.0461 40.5534 67.1792C40.5934 67.3119 40.9797 67.3658 40.3403 67.6978C39.7005 68.0308 39.3935 68.2174 39.3005 68.4167C39.2076 68.616 39.0072 68.5495 39.4071 68.8691C39.8071 69.1885 40.0066 69.2949 40.2863 69.6143C40.5661 69.9336 41.6195 70.6927 41.6984 70.8395C41.7787 70.9849 41.8453 71.1189 41.8589 71.2653C41.8726 71.412 41.7524 71.4645 41.9519 71.5184C42.1524 71.571 42.0457 71.5311 42.2313 71.7839C42.4181 72.037 42.5514 72.3291 42.6316 72.5956C42.7118 72.8614 42.8711 73.1418 42.8847 73.3547C42.8987 73.5679 42.8987 73.554 42.8847 73.6868C42.8711 73.8198 43.4442 75.8051 43.4715 76.2046C43.4981 76.6032 44.1652 78.6618 42.8756 78.8942C42.4493 79.28 43.6918 80.4124 41.0337 82.6047C40.8927 82.7524 40.174 82.9403 40.2279 82.4905C41.1471 81.9466 40.7951 81.2251 40.5122 81.0557C40.4284 80.7467 40.9774 80.4052 40.7574 80.1638Z" fill="#5DB4CE"/>
<path fill-rule="evenodd" clip-rule="evenodd" d="M40.4 80.155C40.3738 79.9684 40.6063 79.6491 40.4735 79.3559C40.3393 79.0639 40.1801 78.9312 39.913 78.6644C39.6469 78.3985 39.5403 78.5842 39.4864 78.3713C39.4338 78.1594 38.714 78.2119 38.3677 78.0792C38.0217 77.9451 37.3283 77.7322 36.6622 77.5732C35.9961 77.4129 34.6104 77.7598 34.2643 77.5732C33.918 77.3866 32.6917 77.2539 32.2125 77.2C31.7323 77.1471 29.2541 77.0672 28.588 76.9342C27.9223 76.8015 27.842 76.8015 27.4957 76.5083C27.1497 76.2153 26.7234 75.7629 26.4836 75.4435C26.2428 75.1242 26.1363 75.0177 25.9231 74.4325C25.7113 73.8465 25.0439 73.4478 24.911 73.2349C24.7781 73.022 24.6715 73.2613 24.6715 73.2613C24.6715 73.2613 24.5786 73.5384 24.4801 73.4252C24.3609 73.2898 24.1981 73.2041 24.0194 73.2259C23.7006 73.2658 23.6536 73.172 23.4989 72.8618C23.366 72.5962 23.3923 72.6489 23.312 72.4632C23.2318 72.2766 23.0726 72.3029 22.646 71.9033C22.2197 71.5051 22.8065 71.584 22.646 71.3983C22.4855 71.2117 22.2197 70.8385 22.0868 70.6256C21.9527 70.414 21.447 70.4928 20.9669 70.4403C20.4879 70.3864 20.5142 70.7057 20.0073 70.1206C19.5021 69.5345 18.4887 69.5607 17.8766 69.6672C17.2634 69.774 16.8371 69.8275 16.2237 69.5883C15.6115 69.3491 15.7181 69.774 15.2116 69.799C14.7372 69.8207 14.1456 69.3365 14.0734 69.2745C14.0676 69.2697 14.063 69.2673 14.0562 69.2654C12.9512 68.9324 9.2396 66.0195 8.4579 65.462C7.67382 64.9031 7.11113 64.2381 6.81769 64.1924C6.57241 64.1544 6.1393 64.1797 6.00639 64.19C5.98107 64.1908 5.96028 64.1773 5.95116 64.1533C5.74254 63.5795 4.97933 62.8275 4.97933 62.8275C4.44616 62.3751 3.88696 60.4321 3.80674 60.0588C3.72643 59.6868 3.67382 59.7657 3.48695 59.5804C3.29983 59.3938 3.40672 58.9943 3.19327 58.5681C2.98013 58.1423 1.99433 58.2225 1.75484 58.4526C1.51536 58.6827 1.5417 58.5156 1.22651 58.7009C0.912358 58.8875 1.11542 58.5156 0.982189 58.4617C0.848321 58.4091 0.608519 58.5957 0.555908 58.8076C0.501949 59.0205 0.528292 59.4739 0.421722 59.4201C0.315152 59.3675 0.103282 59.6592 0.103282 59.6592C-0.296972 60.4321 0.582252 61.9756 0.769048 62.3751C0.954891 62.7736 0.901964 63.2533 0.901964 63.2533C0.98219 63.9712 0.475682 64.0777 0.475682 64.4246C0.475682 64.7703 0.715089 65.0896 0.821738 65.8089C0.928626 66.5267 0.795394 66.6069 0.901964 67.1655C1.00853 67.7243 1.08876 67.5916 1.30222 67.7782C1.51536 67.9648 1.43513 67.9911 1.62193 68.2842C1.80753 68.5763 1.83515 68.6026 1.9141 68.9229C1.99433 69.2413 1.88776 69.0823 2.07455 69.3215C2.26143 69.5606 2.2877 69.6408 2.42093 69.7989C2.55384 69.9557 2.26143 69.9605 2.07455 69.7989C1.88776 69.6362 1.70088 69.7739 1.43513 69.7989C1.16803 69.8229 1.06146 70.1205 1.06146 70.1205C0.999408 70.2363 1.28373 70.3062 1.28373 70.3062C1.28373 70.3062 1.85237 70.6255 2.15486 70.8741C2.45632 71.1224 2.42093 71.2473 2.45632 71.371C2.49179 71.4956 2.58011 71.8325 2.74064 72.1161C2.8999 72.4001 3.52242 72.7552 3.73556 72.8445C3.9487 72.9327 4.42791 72.9509 4.7477 73.1456C5.06741 73.3413 5.76111 73.4478 5.95568 73.4478C6.15192 73.4478 6.20461 73.5176 6.41775 73.749C6.63089 73.9804 6.80864 74.1394 6.84403 74.2287C6.87974 74.317 6.73746 74.3523 6.63089 74.2459C6.52432 74.1394 6.24 73.9976 6.08082 74.1222C5.92029 74.2459 5.70715 74.2459 5.81372 74.476C5.92029 74.7074 6.16914 75.1504 6.31118 75.7011C6.45314 76.2506 6.91521 76.4281 7.30602 76.6596C7.69691 76.8897 7.94584 76.8014 8.26555 76.8725C8.55535 76.9364 8.85919 77.2194 8.91441 77.272C8.91989 77.2775 8.92807 77.2823 8.93711 77.2846C9.58368 77.4768 9.86442 77.5296 9.88164 77.6176C9.89989 77.7059 9.72246 78.0438 9.82903 78.1502C9.9356 78.2567 10.5396 78.5932 11.0897 78.7182C11.633 78.8405 12.5213 79.4796 12.5466 79.4978C12.5479 79.4993 12.5466 79.4978 12.5479 79.4993C12.5661 79.5108 12.9661 79.7512 13.4167 79.9423C13.8762 80.1368 17.4639 80.6463 17.5029 80.6521C17.5029 80.6521 17.5042 80.6521 17.5052 80.6521C19.2451 80.7771 20.6298 81.3094 20.6298 81.3094C23.0989 82.001 23.7923 82.8526 23.7923 82.8526C23.7923 82.8526 24.432 83.4563 24.6452 83.5981C24.8584 83.7399 26.2786 84.2725 26.776 84.2725C27.2735 84.2725 27.576 84.6091 27.576 84.6091C27.576 84.6091 27.9486 85.0167 28.0734 84.9995C28.1972 84.9823 28.3935 84.4316 28.5526 84.2725C28.7132 84.1122 29.0683 84.0239 29.0501 83.8464C29.0329 83.6692 29.2632 83.0658 29.2817 82.728C29.2989 82.3914 29.0855 82.3021 28.9617 82.1246C28.837 81.9471 28.6066 81.8049 28.588 81.5395C28.5708 81.274 27.8603 80.6693 27.8603 80.6693C27.8603 80.6693 28.5354 80.865 28.6946 80.9361C28.8551 81.0072 29.0683 81.2555 29.1213 81.3094C29.1751 81.3619 29.3883 81.2908 29.441 81.0426C29.4949 80.794 29.8319 80.3156 29.9738 80.3853C30.1161 80.4574 30.0095 80.7404 30.1344 80.8297C30.2582 80.9177 30.4004 80.7404 30.7201 80.4918C31.0399 80.2445 30.9872 80.2617 31.1636 80.2971C31.3427 80.3328 31.448 80.2789 31.4834 80.0842C31.5191 79.8895 31.6257 79.783 31.8928 79.5701C32.1586 79.3562 32.2297 79.2508 32.4257 78.9486C32.6219 78.6474 32.8695 78.7185 33.4023 78.7883C33.9352 78.8603 34.0957 78.8603 34.717 79.2861C35.3395 79.7122 35.7658 79.4098 36.2989 79.339C36.8318 79.268 37.3111 79.268 37.5768 79.2325C37.8439 79.1969 38.0571 79.2861 38.2702 79.3562C38.4837 79.4282 38.5364 79.552 38.6429 79.7466C38.7495 79.9423 39.052 80.2263 39.247 80.4574C39.4429 80.6876 39.7271 80.6876 39.7271 80.6876C39.7593 80.7369 39.7834 80.7872 39.8051 80.8374C39.9598 80.88 40.093 80.9521 40.2019 81.0449C40.2568 81.0186 40.2396 81.0266 40.2935 81.0014C40.3039 80.7771 40.2854 80.6395 40.4 80.5009C40.5329 80.3419 40.4264 80.3419 40.4 80.1552V80.155ZM21.642 76.979C21.3931 76.854 20.8785 76.6411 20.4879 76.6597C20.097 76.6769 19.7244 76.695 19.1557 76.6769C18.5872 76.6597 18.2492 76.3399 17.8938 76.3218C17.5386 76.3046 17.2725 76.0206 17.0054 76.0206C16.7715 76.0206 17.0581 75.8158 17.1315 75.7652C17.1429 75.7572 17.15 75.7483 17.1533 75.7343C17.1695 75.6736 17.2131 75.4779 17.1832 75.2569C17.1478 74.9914 17.2544 74.6545 17.2544 74.476C17.2544 74.2998 16.97 74.1748 16.7923 74.1567C16.6145 74.1395 16.171 74.0512 15.8868 73.9805C15.6025 73.9094 15.4247 73.6779 15.1762 73.6779C14.9273 73.6779 15.2642 73.4125 14.9984 73.5715C14.9984 73.5715 15.0696 73.3586 15.6197 73.1811C16.171 73.0036 16.5791 73.0931 16.8816 72.9867C17.1832 72.8799 17.4675 72.9156 17.4857 72.7907C17.5029 72.667 17.6279 72.4713 17.7518 72.4359C17.8766 72.4002 18.1069 72.4359 18.2847 72.6131C18.4623 72.7907 18.5872 72.6842 18.7294 72.7027C18.8715 72.7199 18.8532 72.9328 18.9598 72.951C19.0664 72.9682 19.3325 72.8799 19.5992 72.6842C19.8654 72.4895 20.0509 72.5251 20.3492 72.4895C20.6471 72.4541 21.0562 72.3477 20.9142 72.5067C20.7719 72.667 20.5233 72.6901 20.6117 72.998C20.701 73.306 21.0562 73.5005 20.7364 73.5715C20.4167 73.6426 20.097 73.8201 20.0431 74.0158C19.9901 74.2106 19.8835 74.1567 20.0785 74.4588C20.2744 74.7613 20.4879 75.0268 20.6838 75.3991C20.8785 75.7723 21.3051 76.056 21.4642 76.3929C21.6248 76.7304 21.9975 76.9962 21.9975 76.9962L22.4776 77.4405C22.4776 77.4405 21.8909 77.1027 21.642 76.979Z" fill="#5DB4CE"/>
</svg>
