<svg width="100" height="99" viewBox="0 0 100 99" fill="none" xmlns="http://www.w3.org/2000/svg">
<path fill-rule="evenodd" clip-rule="evenodd" d="M53.7397 0.223633C52.3678 0.618555 50.0445 3.67168 49.8582 5.32461C49.7154 6.5916 50.1027 7.70117 51.0168 8.64219C51.8193 9.46855 51.8234 9.48027 51.8467 11.0352C51.8865 13.6984 53.1381 15.7342 55.5141 17.0006C56.5383 17.5465 56.9957 17.6668 58.3129 17.7359C59.6688 17.807 60.06 17.749 61.1277 17.3178C62.9024 16.6008 63.0859 16.7424 63.0859 18.8283C63.0859 20.3025 63.1512 20.5859 63.7813 21.8453C64.5164 23.3146 65.3971 24.1863 66.9922 25.0236C67.7449 25.4186 68.1518 25.4852 69.8242 25.4865C71.4559 25.4881 71.9209 25.4166 72.6492 25.0527C73.3783 24.6883 73.5815 24.6572 73.8908 24.8627C74.2012 25.0687 74.2652 25.3748 74.2885 26.7631C74.3115 28.1307 74.408 28.6047 74.8447 29.4936C75.5625 30.9549 76.8002 32.1635 78.309 32.8762C80.0191 33.6838 81.9852 33.7164 83.6277 32.9645L84.733 32.4584L85.677 32.943C86.9279 33.5848 88.6645 33.5254 89.7199 32.8047C90.51 32.2652 92.0414 30.2803 92.483 29.2232C93.1645 27.5924 92.6174 25.5281 91.208 24.4117C90.5793 23.9139 90.4166 23.6305 90.2248 22.6986C89.8488 20.8734 89.1223 19.1762 87.9842 17.4658C86.6524 15.4645 85.8275 14.7195 81.8647 11.9402C80.1301 10.7238 78.6662 9.65586 78.6113 9.56719C78.5566 9.47852 79.5311 7.94883 80.7772 6.16777L83.0424 2.92969H90.1277C97 2.92969 97.2285 2.91758 97.7275 2.5248C98.4393 1.96504 98.4393 0.964648 97.7275 0.404883C97.2268 0.0109375 97.0068 0 89.5354 0H81.8578L81.3713 0.439453C81.1037 0.68125 79.8139 2.41699 78.5053 4.29688C77.1965 6.17676 76.1008 7.74277 76.0705 7.77676C76.0402 7.81094 74.3148 6.64805 72.2361 5.19277C68.2932 2.43223 66.6027 1.5541 64.2848 1.06289C62.9635 0.782813 59.7508 0.722266 58.6914 0.957617C58.2533 1.05488 57.8418 0.950391 57.0602 0.54375C55.9584 -0.0294922 54.9555 -0.126172 53.7397 0.223633ZM55.6608 3.12324C56.8504 3.75977 89.5816 26.8457 89.7215 27.1467C89.9801 27.7029 89.7326 28.374 88.8637 29.4734C88.2734 30.2199 87.9481 30.4688 87.5615 30.4688C87.1965 30.4688 82.1174 27.0191 70.1346 18.6324C60.833 12.1225 53.1129 6.65645 52.9785 6.48574C52.5783 5.97695 52.6926 5.50898 53.5107 4.3041C54.4506 2.92012 54.8606 2.69492 55.6608 3.12324ZM63.7111 3.92988C64.2803 4.05039 65.3086 4.40234 65.9959 4.71211C67.6463 5.45586 82.9994 16.2154 84.2772 17.5234C85.1957 18.4641 86.8084 20.8738 86.6352 21.0473C86.5611 21.1213 62.668 4.48477 62.1164 3.9752C61.8688 3.74629 61.8871 3.71094 62.2531 3.71094C62.4857 3.71094 63.1418 3.80957 63.7111 3.92988ZM4.4922 6.90273C3.19474 7.18711 1.83106 8.0877 1.09923 9.14375C-0.000575837 10.7305 1.01796e-05 10.7236 1.01796e-05 23.9213C1.01796e-05 37.4799 -0.016982 37.2881 1.33751 39.0018C2.0795 39.9404 3.84415 41.0156 4.64259 41.0156C5.23927 41.0156 5.28087 41.2119 4.85938 42.0381C3.39356 44.9113 3.79474 49.2309 5.77325 51.8762L6.22716 52.483L4.68634 52.6018C2.90919 52.7389 2.08419 53.0373 1.29044 53.8301C0.270127 54.8492 0.00899455 55.7203 0.00430705 58.1213C0.000596117 60.0141 0.0578227 60.3996 0.461729 61.1975L0.923448 62.1094L0.461729 63.0213C0.058604 63.8178 1.01796e-05 64.2092 1.01796e-05 66.108C1.01796e-05 68.0437 0.054307 68.3918 0.494737 69.2756C1.05646 70.4027 2.11759 71.2451 3.19571 71.4201C3.89063 71.533 3.90626 71.5549 3.90626 72.415C3.90626 74.2953 4.84493 75.9072 6.3338 76.5834C6.97208 76.8732 7.62013 76.9453 9.61915 76.9488L12.1094 76.9531V86.5754C12.1094 97.5209 12.0609 97.1684 13.6789 97.998C14.3797 98.3574 14.8551 98.4375 16.2883 98.4375C18.542 98.4375 19.5154 98.0203 20.1055 96.8016C20.4949 95.9973 20.5078 95.6637 20.5078 86.4617V76.9531H25.5859H30.6641L30.6652 83.0566C30.6658 86.8846 30.7461 89.448 30.8807 89.9322C31.1594 90.9365 32.1393 91.901 33.1598 92.1758C33.717 92.3258 36.7231 92.3773 42.7467 92.3398C51.0596 92.2881 51.5436 92.2656 51.9328 91.9131C52.4691 91.4275 52.4795 90.3701 51.9531 89.8438C51.5742 89.4648 51.3022 89.4531 42.8125 89.4531C36.2674 89.4531 34.0035 89.3941 33.8281 89.2188C33.4797 88.8703 33.4893 53.4545 33.8379 53.1666C34.0106 53.0238 35.1115 53.2156 37.5977 53.8213L41.1133 54.6777L57.334 54.6826C69.6842 54.6863 73.6105 54.7434 73.7891 54.9219C74.1287 55.2615 74.1287 88.8791 73.7891 89.2188C73.6143 89.3936 71.4801 89.4531 65.3906 89.4531C57.4869 89.4531 57.2141 89.4656 56.8359 89.8438C56.3096 90.3701 56.3199 91.4275 56.8563 91.9131C57.2443 92.2645 57.7248 92.2885 65.4988 92.3451C70.8799 92.3842 73.975 92.3336 74.4365 92.1986C75.4277 91.909 76.1606 91.277 76.5828 90.3475C76.9108 89.6254 76.9449 88.9609 76.9488 83.252L76.9531 76.9531H78.2227H79.4922V86.4617C79.4922 95.6637 79.5051 95.9973 79.8945 96.8016C80.4846 98.0203 81.458 98.4375 83.7117 98.4375C85.1449 98.4375 85.6203 98.3574 86.3211 97.998C87.9391 97.1684 87.8906 97.5209 87.8906 86.5754V76.9531L90.3809 76.9488C92.3799 76.9453 93.0279 76.8732 93.6662 76.5834C95.1551 75.9072 96.0938 74.2953 96.0938 72.415C96.0938 71.5549 96.1094 71.533 96.8043 71.4201C97.8824 71.2451 98.9436 70.4027 99.5053 69.2756C99.9461 68.3908 99.9996 68.0477 99.9957 66.1238C99.991 63.7508 99.726 62.8488 98.75 61.8836C97.6711 60.8164 97.0699 60.6746 93.2373 60.584L89.6971 60.5002L89.7971 59.2545C89.9234 57.6818 89.5246 56.5627 88.4576 55.4957C87.1928 54.2309 86.533 54.1016 81.3455 54.1016H76.8232L76.3512 53.3777C76.0914 52.9797 75.5713 52.4742 75.1953 52.2547C74.5248 51.8631 74.1895 51.8535 57.6172 51.7578L40.7227 51.6602L38.2955 51.0139C33.8543 49.8311 33.0627 49.8234 31.7996 50.9521L31.1928 51.4943L28.9266 50.9311C25.7424 50.1396 24.2393 50.3846 22.7662 51.9352C22.0697 52.6684 21.4488 52.7932 21.9488 52.0996C22.56 51.252 23.3813 49.5025 23.6145 48.5522C24.0973 46.5838 23.8426 43.7473 23.0424 42.1785C22.8299 41.7623 22.6563 41.3789 22.6563 41.3266C22.6563 41.2742 26.941 41.2049 32.1777 41.1725L41.6992 41.1133L42.7303 40.6473C43.9986 40.0742 45.358 38.6131 45.7828 37.3664C46.0344 36.6283 46.0938 35.5273 46.0938 31.6059C46.0938 27.0182 46.0729 26.7369 45.7031 26.3672C45.177 25.841 44.1193 25.8512 43.6338 26.3873C43.2951 26.7609 43.2529 27.2318 43.1641 31.6215C43.0578 36.8734 43.0149 37.0768 41.8518 37.8391C41.3688 38.1557 40.4672 38.1881 30.6922 38.2389L20.0584 38.2941L19.3063 37.7965C18.2359 37.0883 16.8141 36.5648 15.3049 36.3238C13.0865 35.9693 10.1701 36.6291 8.40763 37.884C7.98907 38.182 7.54356 38.2812 6.62325 38.2812C4.99063 38.2812 3.83731 37.7322 3.31388 36.7059C2.94415 35.9814 2.9297 35.4994 2.9297 23.9113C2.9297 12.0508 2.93595 11.8586 3.33868 11.1418C3.56368 10.7416 4.02521 10.2461 4.36407 10.041C4.95899 9.68086 5.61153 9.66797 23.1531 9.66797C40.1861 9.66797 41.3588 9.68965 41.8516 10.0125C43.0149 10.7746 43.0578 10.9779 43.1641 16.2301C43.2529 20.6197 43.2951 21.0906 43.6338 21.4643C44.1131 21.9934 45.3129 22.0234 45.7705 21.5178C46.2424 20.9963 46.2525 11.8641 45.7828 10.4852C45.358 9.23848 43.9986 7.77734 42.7303 7.2043L41.6992 6.73828L23.6328 6.70293C10.1508 6.67656 5.29376 6.72715 4.4922 6.90273ZM58.1039 13.7863L59.4695 14.7461L58.6293 14.8066C57.4043 14.8951 56.1529 14.2309 55.4467 13.1172C55.1365 12.6283 54.8828 12.0621 54.8828 11.8592C54.8828 11.5393 55.0065 11.5793 55.8106 12.1584C56.3209 12.5258 57.3527 13.2584 58.1039 13.7863ZM5.74317 12.5205C5.38653 12.9146 5.3711 13.3887 5.3711 23.9408V34.95L5.81583 35.3949L6.26075 35.8398L22.3197 35.8982C31.1524 35.9305 38.7588 35.9021 39.2231 35.8354C39.6873 35.7686 40.2367 35.5445 40.4438 35.3375C40.8066 34.9746 40.8203 34.5635 40.8203 23.9627C40.8203 13.1643 40.8131 12.9564 40.4221 12.5369L40.0238 12.1094H23.0695H6.11524L5.74317 12.5205ZM37.8906 23.9258V32.8125H23.0469H8.20313V23.9258V15.0391H23.0469H37.8906V23.9258ZM26.5625 17.7734C26.069 18.267 26.0611 19.1559 26.5449 19.7537C26.9014 20.1939 27.0475 20.218 29.784 20.2824C33.0258 20.3586 33.8436 20.258 34.3859 19.7156C34.8777 19.2238 34.8725 18.2709 34.375 17.7734C34.0133 17.4117 33.724 17.3828 30.4688 17.3828C27.2135 17.3828 26.9242 17.4117 26.5625 17.7734ZM12.9865 18.3207C9.07247 20.1604 10.0475 25.6201 14.8619 28.8207C16.6875 30.0344 17.4053 30.1221 18.8315 29.3063C20.1553 28.5486 21.9006 26.9834 22.6313 25.898C24.2031 23.5635 24.2428 20.4775 22.7188 19.0992C22.5154 18.9154 21.9197 18.575 21.3951 18.343C20.2754 17.8477 18.842 17.9049 17.8311 18.4854C17.2233 18.8344 17.1875 18.8342 16.5955 18.4846C15.6865 17.9477 13.9483 17.8687 12.9865 18.3207ZM70.0195 22.1332L70.8008 22.7L69.5959 22.618C68.6814 22.5557 68.2004 22.4039 67.6008 21.9883C66.8779 21.4873 66.0156 20.1631 66.0156 19.5537C66.0156 19.3396 67.3832 20.2207 70.0195 22.1332ZM15.7096 21.582C16.2647 22.1371 16.5412 22.2656 17.1805 22.2656C17.8057 22.2656 18.1233 22.125 18.7242 21.582C20.9242 19.5945 21.8041 22.5062 19.7207 24.8791C19.0053 25.6941 17.5492 26.7578 17.1494 26.7578C17.0061 26.7578 16.3619 26.3314 15.7178 25.8104C13.8479 24.2973 12.9584 22.1854 13.7998 21.2557C14.2936 20.71 14.9498 20.8223 15.7096 21.582ZM26.6865 22.8658C26.3133 23.1594 26.1719 23.4506 26.1719 23.9258C26.1719 24.401 26.3133 24.6922 26.6865 24.9857C27.1606 25.3588 27.4588 25.3906 30.4688 25.3906C33.4787 25.3906 33.777 25.3588 34.251 24.9857C34.9627 24.426 34.9627 23.4256 34.251 22.8658C33.777 22.4928 33.4787 22.4609 30.4688 22.4609C27.4588 22.4609 27.1606 22.4928 26.6865 22.8658ZM56.1531 24.6098C54.757 25.4639 53.5045 26.3133 53.3699 26.4975C52.7803 27.3039 53.4809 28.7109 54.4721 28.7109C55.0588 28.7109 59.6113 26.1045 60.2377 25.41C61.0639 24.4939 60.4283 23.0402 59.2068 23.0518C58.9123 23.0545 57.6033 23.7223 56.1531 24.6098ZM62.3654 27.2451C61.6967 27.7135 58.7617 32.0482 58.651 32.7313C58.4316 34.0828 60.1768 34.716 61.1621 33.6426C62.1 32.6207 64.4709 29.0613 64.5813 28.5096C64.6664 28.0838 64.576 27.8395 64.1908 27.4543C63.625 26.8885 62.9801 26.8146 62.3654 27.2451ZM81.3945 30.0902C81.8281 30.4213 81.8285 30.4252 81.4295 30.5295C80.2981 30.8254 78.2785 29.7508 77.644 28.5156C76.8877 27.0432 77.0254 27.0338 79.0299 28.4219C80.0899 29.1557 81.1539 29.9064 81.3945 30.0902ZM27.0313 27.818C26.0904 28.2275 25.8537 29.3693 26.5625 30.0781C26.9242 30.4398 27.2135 30.4688 30.4688 30.4688C33.724 30.4688 34.0133 30.4398 34.375 30.0781C35.1184 29.3348 34.7979 28.1152 33.7641 27.7549C32.8629 27.4408 27.7885 27.4883 27.0313 27.818ZM67.3154 29.7184C66.8609 30.117 66.7162 30.5629 66.1914 33.1834C65.7205 35.5344 65.6348 36.292 65.7994 36.6531C66.2383 37.6164 67.6754 37.7389 68.2496 36.8621C68.558 36.3912 69.5332 31.7238 69.5242 30.7617C69.5125 29.4945 68.2504 28.8984 67.3154 29.7184ZM15.5789 39.3408C17.7756 39.9256 19.7498 41.6738 20.5139 43.7105C21.134 45.3635 21.0129 47.726 20.2287 49.2736C18.4906 52.7039 14.419 54.1115 10.9096 52.4957C8.83263 51.5395 7.20899 49.2471 6.93458 46.8842C6.60743 44.0643 8.42286 40.8492 10.9375 39.7957C12.7016 39.0566 14.0242 38.927 15.5789 39.3408ZM28.4668 53.826L30.6641 54.3352V56.1715C30.6641 57.2969 30.5865 58.0078 30.4637 58.0078C30.3533 58.0078 29.1471 57.7283 27.7828 57.3867C26.0359 56.9492 25.1711 56.6342 24.8582 56.3213C24.0649 55.5279 24.4057 53.9396 25.4604 53.5141C26.0662 53.2695 26.0647 53.2693 28.4668 53.826ZM11.2483 55.7637C12.4817 56.1432 15.2203 56.1449 16.6016 55.7672C17.2115 55.6004 18.4986 55.4725 19.5801 55.4711C21.2637 55.4689 21.4846 55.5084 21.4863 55.8105C21.49 56.4988 22.4307 58.1498 23.1629 58.7533C23.9068 59.3664 24.3029 59.5389 25.9336 59.959C26.3934 60.0775 26.7178 60.2582 26.6545 60.3607C26.5836 60.4754 22.1393 60.5469 15.0918 60.5469C4.71368 60.5469 3.61075 60.5166 3.28692 60.2236C2.99024 59.9551 2.9297 59.5963 2.9297 58.1055C2.9297 55.5037 2.92599 55.5061 7.24435 55.4842C9.44454 55.473 10.5555 55.5506 11.2483 55.7637ZM86.3131 57.5369C87.0967 58.1961 87.1486 59.2602 86.4352 60.0301L85.9561 60.5469H81.4547H76.9531V58.7891V57.0312H81.3326H85.7123L86.3131 57.5369ZM30.6641 66.2148V68.7578L17.208 68.7051C1.37032 68.643 2.9297 68.9223 2.9297 66.1473C2.9297 64.7826 3.00255 64.3059 3.25294 64.0291C3.56017 63.6897 4.24708 63.6719 17.1201 63.6719H30.6641V66.2148ZM96.7131 63.9951C97.0098 64.2637 97.0703 64.6225 97.0703 66.1133C97.0703 68.89 98.0715 68.6422 86.6008 68.7064L76.9531 68.7605V66.2162V63.6719H86.6545C95.4078 63.6719 96.3908 63.7035 96.7131 63.9951ZM30.6641 72.8516V74.0234H19.0541H7.44395L7.14005 73.5893C6.97286 73.3506 6.83595 72.8232 6.83595 72.4174V71.6797H18.75H30.6641V72.8516ZM93.1641 72.4174C93.1641 72.8232 93.0272 73.3506 92.86 73.5893L92.5561 74.0234H84.7545H76.9531V72.8516V71.6797H85.0586H93.1641V72.4174ZM17.5781 86.2305V95.5078H16.3086H15.0391V86.2305V76.9531H16.3086H17.5781V86.2305ZM84.9609 86.2305V95.5078H83.6914H82.4219V86.2305V76.9531H83.6914H84.9609V86.2305Z" fill="#5DB4CE"/>
</svg>
